<svg width="48" height="48" viewBox="0 0 48 48" fill="none" xmlns="http://www.w3.org/2000/svg">
<g clip-path="url(#clip0_2001_4939)">
<rect width="48" height="48" rx="12" fill="white"/>
<rect width="48" height="48" rx="12" fill="url(#paint0_linear_2001_4939)"/>
<path fill-rule="evenodd" clip-rule="evenodd" d="M24.0001 3.0584C12.4343 3.0584 3.0584 12.4343 3.0584 24.0001C3.0584 35.566 12.4343 44.9419 24.0001 44.9419C35.566 44.9419 44.9419 35.566 44.9419 24.0001C44.9419 12.4343 35.566 3.0584 24.0001 3.0584ZM2.94189 24.0001C2.94189 12.37 12.37 2.94189 24.0001 2.94189C35.6303 2.94189 45.0584 12.37 45.0584 24.0001C45.0584 35.6303 35.6303 45.0584 24.0001 45.0584C12.37 45.0584 2.94189 35.6303 2.94189 24.0001Z" fill="#D0D5DD"/>
<path fill-rule="evenodd" clip-rule="evenodd" d="M24 18.117C20.7506 18.117 18.1165 20.7511 18.1165 24.0005C18.1165 27.2499 20.7506 29.884 24 29.884C27.2494 29.884 29.8835 27.2499 29.8835 24.0005C29.8835 20.7511 27.2494 18.117 24 18.117ZM18 24.0005C18 20.6868 20.6863 18.0005 24 18.0005C27.3137 18.0005 30 20.6868 30 24.0005C30 27.3142 27.3137 30.0005 24 30.0005C20.6863 30.0005 18 27.3142 18 24.0005Z" fill="#D0D5DD"/>
<path fill-rule="evenodd" clip-rule="evenodd" d="M24.0002 19.9803C21.7803 19.9803 19.9808 21.7798 19.9808 23.9997C19.9808 26.2196 21.7803 28.0191 24.0002 28.0191C26.22 28.0191 28.0196 26.2196 28.0196 23.9997C28.0196 21.7798 26.22 19.9803 24.0002 19.9803ZM19.8643 23.9997C19.8643 21.7155 21.716 19.8638 24.0002 19.8638C26.2844 19.8638 28.1361 21.7155 28.1361 23.9997C28.1361 26.2839 26.2844 28.1356 24.0002 28.1356C21.716 28.1356 19.8643 26.2839 19.8643 23.9997Z" fill="#D0D5DD"/>
<path d="M23.9419 0H24.0584V48H23.9419V0Z" fill="#D0D5DD"/>
<path d="M48 23.9414L48 24.0579L-5.09259e-09 24.0579L0 23.9414L48 23.9414Z" fill="#D0D5DD"/>
<path d="M39.9028 0H40.0193V48H39.9028V0Z" fill="#D0D5DD"/>
<path d="M15.9609 0H16.0774V48H15.9609V0Z" fill="#D0D5DD"/>
<path d="M31.9224 0H32.0389V48H31.9224V0Z" fill="#D0D5DD"/>
<path d="M7.98047 0H8.09697V48H7.98047V0Z" fill="#D0D5DD"/>
<path d="M48 39.9023L48 40.0188L-5.09259e-09 40.0188L0 39.9023L48 39.9023Z" fill="#D0D5DD"/>
<path d="M48 15.9609L48 16.0774L-5.09259e-09 16.0774L0 15.9609L48 15.9609Z" fill="#D0D5DD"/>
<path d="M48 31.9219L48 32.0384L-5.09259e-09 32.0384L0 31.9219L48 31.9219Z" fill="#D0D5DD"/>
<path d="M48 7.98047L48 8.09697L-5.09259e-09 8.09697L0 7.98047L48 7.98047Z" fill="#D0D5DD"/>
<g filter="url(#filter0_dd_2001_4939)">
<circle cx="24" cy="24" r="12" fill="url(#paint1_linear_2001_4939)"/>
</g>
<g filter="url(#filter1_b_2001_4939)">
<path d="M0 24H48V28.8C48 35.5206 48 38.8809 46.6921 41.4479C45.5416 43.7058 43.7058 45.5416 41.4479 46.6921C38.8809 48 35.5206 48 28.8 48H19.2C12.4794 48 9.11905 48 6.55211 46.6921C4.29417 45.5416 2.4584 43.7058 1.30792 41.4479C0 38.8809 0 35.5206 0 28.8V24Z" fill="white" fill-opacity="0.2"/>
</g>
</g>
<rect x="0.15" y="0.15" width="47.7" height="47.7" rx="11.85" stroke="#D0D5DD" stroke-width="0.3"/>
<defs>
<filter id="filter0_dd_2001_4939" x="7.5" y="9" width="33" height="33" filterUnits="userSpaceOnUse" color-interpolation-filters="sRGB">
<feFlood flood-opacity="0" result="BackgroundImageFix"/>
<feColorMatrix in="SourceAlpha" type="matrix" values="0 0 0 0 0 0 0 0 0 0 0 0 0 0 0 0 0 0 127 0" result="hardAlpha"/>
<feOffset dy="1.5"/>
<feGaussianBlur stdDeviation="1.5"/>
<feColorMatrix type="matrix" values="0 0 0 0 0.0627451 0 0 0 0 0.0941176 0 0 0 0 0.156863 0 0 0 0.06 0"/>
<feBlend mode="normal" in2="BackgroundImageFix" result="effect1_dropShadow_2001_4939"/>
<feColorMatrix in="SourceAlpha" type="matrix" values="0 0 0 0 0 0 0 0 0 0 0 0 0 0 0 0 0 0 127 0" result="hardAlpha"/>
<feOffset dy="1.5"/>
<feGaussianBlur stdDeviation="2.25"/>
<feColorMatrix type="matrix" values="0 0 0 0 0.0627451 0 0 0 0 0.0941176 0 0 0 0 0.156863 0 0 0 0.1 0"/>
<feBlend mode="normal" in2="effect1_dropShadow_2001_4939" result="effect2_dropShadow_2001_4939"/>
<feBlend mode="normal" in="SourceGraphic" in2="effect2_dropShadow_2001_4939" result="shape"/>
</filter>
<filter id="filter1_b_2001_4939" x="-7.5" y="16.5" width="63" height="39" filterUnits="userSpaceOnUse" color-interpolation-filters="sRGB">
<feFlood flood-opacity="0" result="BackgroundImageFix"/>
<feGaussianBlur in="BackgroundImageFix" stdDeviation="3.75"/>
<feComposite in2="SourceAlpha" operator="in" result="effect1_backgroundBlur_2001_4939"/>
<feBlend mode="normal" in="SourceGraphic" in2="effect1_backgroundBlur_2001_4939" result="shape"/>
</filter>
<linearGradient id="paint0_linear_2001_4939" x1="24" y1="0" x2="24" y2="48" gradientUnits="userSpaceOnUse">
<stop stop-color="white"/>
<stop offset="1" stop-color="#D0D5DD"/>
</linearGradient>
<linearGradient id="paint1_linear_2001_4939" x1="18" y1="36" x2="30" y2="12" gradientUnits="userSpaceOnUse">
<stop stop-color="#53389E"/>
<stop offset="1" stop-color="#6941C6"/>
</linearGradient>
<clipPath id="clip0_2001_4939">
<rect width="48" height="48" rx="12" fill="white"/>
</clipPath>
</defs>
</svg>
