<svg width="41" height="40" viewBox="0 0 41 40" fill="none" xmlns="http://www.w3.org/2000/svg">
<path d="M8.25 4C8.25 2.20508 9.70508 0.75 11.5 0.75H27.5C27.6212 0.75 27.7375 0.798159 27.8232 0.883885L38.6161 11.6768C38.7018 11.7625 38.75 11.8788 38.75 12V36C38.75 37.7949 37.2949 39.25 35.5 39.25H11.5C9.70507 39.25 8.25 37.7949 8.25 36V4Z" fill="white" stroke="#D0D5DD" stroke-width="1.5"/>
<path d="M27.5 0.5V8C27.5 10.2091 29.2909 12 31.5 12H39" stroke="#D0D5DD" stroke-width="1.5"/>
<rect x="1.5" y="18" width="26" height="16" rx="2" fill="#D92D20"/>
<path d="M5.3323 30V22.7273H8.20162C8.75323 22.7273 9.22316 22.8326 9.61142 23.0433C9.99967 23.2517 10.2956 23.5417 10.4992 23.9134C10.7052 24.2827 10.8082 24.7088 10.8082 25.1918C10.8082 25.6747 10.704 26.1009 10.4957 26.4702C10.2873 26.8395 9.98547 27.1271 9.59011 27.3331C9.19712 27.5391 8.72127 27.642 8.16255 27.642H6.33372V26.4098H7.91397C8.2099 26.4098 8.45375 26.3589 8.64551 26.2571C8.83964 26.1529 8.98405 26.0097 9.07875 25.8274C9.17581 25.6428 9.22434 25.4309 9.22434 25.1918C9.22434 24.9503 9.17581 24.7396 9.07875 24.5597C8.98405 24.3774 8.83964 24.2365 8.64551 24.1371C8.45138 24.0353 8.20517 23.9844 7.90687 23.9844H6.86994V30H5.3323ZM14.385 30H11.8069V22.7273H14.4063C15.1379 22.7273 15.7676 22.8729 16.2955 23.1641C16.8235 23.4529 17.2295 23.8684 17.5136 24.4105C17.8 24.9527 17.9433 25.6013 17.9433 26.3565C17.9433 27.1141 17.8 27.7652 17.5136 28.3097C17.2295 28.8542 16.8211 29.272 16.2884 29.5632C15.7581 29.8544 15.1237 30 14.385 30ZM13.3445 28.6825H14.3211C14.7757 28.6825 15.158 28.602 15.4681 28.4411C15.7806 28.2777 16.015 28.0256 16.1713 27.6847C16.3299 27.3414 16.4092 26.8987 16.4092 26.3565C16.4092 25.8191 16.3299 25.38 16.1713 25.0391C16.015 24.6982 15.7818 24.4472 15.4717 24.2862C15.1615 24.1252 14.7792 24.0447 14.3247 24.0447H13.3445V28.6825ZM19.0823 30V22.7273H23.8976V23.995H20.6199V25.728H23.578V26.9957H20.6199V30H19.0823Z" fill="white"/>
</svg>
